<svg xmlns="http://www.w3.org/2000/svg" width="1280" height="720" viewBox="0 0 1280 720">
  <defs>
    <linearGradient id="bg" x1="0" y1="0" x2="1" y2="1">
      <stop offset="0%" stop-color="#0a1e28"/>
      <stop offset="100%" stop-color="#24465c"/>
    </linearGradient>
  </defs>
  <rect width="1280" height="720" fill="url(#bg)"/>
  <rect x="36" y="34" width="760" height="652" rx="18" fill="#0d2230" stroke="#f4c67f" stroke-opacity="0.5"/>
  <rect x="824" y="34" width="420" height="652" rx="18" fill="#0d2230" stroke="#f4c67f" stroke-opacity="0.5"/>
  <text x="56" y="70" fill="#f7f1e4" font-family="Avenir Next" font-size="28">Chess Research Visualizer</text>
  <text x="56" y="102" fill="#9ec5d4" font-family="Avenir Next" font-size="16">Board: heatmap + PV arrows + live search move highlight</text>
  <rect x="72" y="126" width="688" height="520" rx="14" fill="#122d3d"/>
  <g transform="translate(92,146)">
    <rect width="648" height="480" fill="#d7bf8f"/>
    <g fill="#295049">
      <rect x="81" y="0" width="81" height="60"/>
      <rect x="243" y="0" width="81" height="60"/>
      <rect x="405" y="0" width="81" height="60"/>
      <rect x="567" y="0" width="81" height="60"/>
      <rect x="0" y="60" width="81" height="60"/>
      <rect x="162" y="60" width="81" height="60"/>
      <rect x="324" y="60" width="81" height="60"/>
      <rect x="486" y="60" width="81" height="60"/>
      <rect x="81" y="120" width="81" height="60"/>
      <rect x="243" y="120" width="81" height="60"/>
      <rect x="405" y="120" width="81" height="60"/>
      <rect x="567" y="120" width="81" height="60"/>
      <rect x="0" y="180" width="81" height="60"/>
      <rect x="162" y="180" width="81" height="60"/>
      <rect x="324" y="180" width="81" height="60"/>
      <rect x="486" y="180" width="81" height="60"/>
      <rect x="81" y="240" width="81" height="60"/>
      <rect x="243" y="240" width="81" height="60"/>
      <rect x="405" y="240" width="81" height="60"/>
      <rect x="567" y="240" width="81" height="60"/>
      <rect x="0" y="300" width="81" height="60"/>
      <rect x="162" y="300" width="81" height="60"/>
      <rect x="324" y="300" width="81" height="60"/>
      <rect x="486" y="300" width="81" height="60"/>
      <rect x="81" y="360" width="81" height="60"/>
      <rect x="243" y="360" width="81" height="60"/>
      <rect x="405" y="360" width="81" height="60"/>
      <rect x="567" y="360" width="81" height="60"/>
      <rect x="0" y="420" width="81" height="60"/>
      <rect x="162" y="420" width="81" height="60"/>
      <rect x="324" y="420" width="81" height="60"/>
      <rect x="486" y="420" width="81" height="60"/>
    </g>
    <circle cx="364" cy="242" r="28" fill="#ff8243" fill-opacity="0.42"/>
    <circle cx="283" cy="182" r="24" fill="#7bdaf8" fill-opacity="0.42"/>
    <line x1="283" y1="362" x2="364" y2="242" stroke="#ff8243" stroke-width="10" stroke-linecap="round"/>
  </g>
  <text x="844" y="70" fill="#f7f1e4" font-family="Avenir Next" font-size="24">Engine Telemetry</text>
  <text x="844" y="103" fill="#9ec5d4" font-family="Avenir Next" font-size="16">Depth, eval, PV, candidate ranks, piece valuation</text>
  <rect x="844" y="130" width="380" height="64" rx="10" fill="#173446"/>
  <rect x="844" y="210" width="380" height="64" rx="10" fill="#173446"/>
  <rect x="844" y="290" width="380" height="64" rx="10" fill="#173446"/>
  <rect x="844" y="370" width="380" height="64" rx="10" fill="#173446"/>
  <rect x="844" y="450" width="380" height="220" rx="10" fill="#173446"/>
</svg>
